# xmcd
#
# Track frame offsets:
#	150
#	15042
#	31980
#	48165
#	56244
#	65606
#	81351
#	91140
#	100843
#	116905
#	125715
#	137376
#	147170
#	156391
#	165029
#	174134
#
# Disc length: 2460 seconds
#
# Revision: 1
# Processed by: cddbd v1.5.1PL0 Copyright (c) Steve Scherf et al.
# Submitted via: CDex 1.50Beta5
#
DISCID=c6099a10
DTITLE=藤井英一 - ジャズ・スタンダード
DYEAR=1900
DGENRE=Jazz
TTITLE0=星に願いを
TTITLE1=虹のかなたに
TTITLE2=マイ・ファニー・バレンタイン
TTITLE3=クレオパトラの夢
TTITLE4=星影のステラ
TTITLE5=マイ・フーリッシュ・ハート
TTITLE6=枯葉
TTITLE7=酒とバラの日々
TTITLE8=クリスマス・ソング
TTITLE9=A列車で行こう
TTITLE10=オール・ザ・シングス・ユー・アー
TTITLE11=あなたと夜と音楽と
TTITLE12=オン・グリーン・ドルフィン・ストリート
TTITLE13=恋とはどんなものかしら
TTITLE14=オール・オブ・ユー
TTITLE15=サテン・ドール
EXTD=
EXTT0=
EXTT1=
EXTT2=
EXTT3=
EXTT4=
EXTT5=
EXTT6=
EXTT7=
EXTT8=
EXTT9=
EXTT10=
EXTT11=
EXTT12=
EXTT13=
EXTT14=
EXTT15=
PLAYORDER=
